# xmcd CD database file
#
# Track frame offsets:
#	150
#	20997
#	56989
#	104785
#	148282
#	194380
#	221298
#	245374
#	270123
#	294687
#	324381
#
# Disc length: 4482 seconds
#
# Revision: 0
# Processed by: cddbd v1.5.1PL0 Copyright (c) Steve Scherf et al.
# Submitted via: CDex 1.51
#
DISCID=b211800b
DTITLE=Eddie Lockjaw Davis - 80th Birthday Celebration CD2 - A Contrast, Not A Contest (The Sixties)
DYEAR=2003
DGENRE=Jazz
TTITLE0=Jaws
TTITLE1=Hey, Lock
TTITLE2=Night Hawk
TTITLE3=I'll Remember April
TTITLE4=Robbin's Nest
TTITLE5=Stickball (I Mean You)
TTITLE6=Guanco Lament
TTITLE7=Goin' To Meetin'
TTITLE8=Camp Meeting
TTITLE9=Jawbreakers
TTITLE10=Our Love Is Here To Stay
EXTD=YEAR: 2003
EXTT0=
EXTT1=
EXTT2=
EXTT3=
EXTT4=
EXTT5=
EXTT6=
EXTT7=
EXTT8=
EXTT9=
EXTT10=
PLAYORDER=
